<svg width="239" height="77" viewBox="0 0 239 77" xmlns="http://www.w3.org/2000/svg"><g fill="#fff"><path d="M10.912 23.104h4.192c0 2.24-1.312 4.064-4.096 4.064-3.104 0-4.8-1.6-4.8-7.008 0-4.96 1.792-6.944 5.024-6.944 1.984 0 3.168 1.024 3.936 2.304l3.68-2.368c-1.248-2.528-4.064-4.096-7.392-4.096-6.432 0-10.368 3.296-10.368 11.104 0 7.584 3.776 11.168 9.92 11.168 6.336 0 9.12-4.576 9.12-9.856 0-.416-.096-1.504-.192-2.368h-9.024zM34.656 31.008v-9.696c0-3.744-2.624-5.216-6.24-5.216-3.712 0-6.144 1.664-6.144 4.192 0 .256.032.672.064.96h3.904V20.8c0-.64.608-1.184 1.856-1.184 1.6 0 2.016.736 2.016 1.696v.672l-1.184.064c-4.448.256-7.264 1.696-7.264 4.992 0 2.656 1.76 4.32 4.256 4.32 2.112 0 3.552-.864 4.512-1.984v1.632zm-8.384-4.288c0-1.024.864-1.664 2.656-1.92l1.184-.16v2.368c-.64.576-1.536.96-2.368.96-.864 0-1.472-.384-1.472-1.248zM25.12 11.232c0 1.504 1.12 3.264 3.52 3.264 2.528 0 3.68-1.76 3.68-3.264 0-1.664-1.152-3.328-3.68-3.328-2.4 0-3.52 1.664-3.52 3.328zm2.4 0c0-.512.352-1.12 1.12-1.12.864 0 1.216.608 1.216 1.12 0 .48-.352 1.056-1.216 1.056-.768 0-1.12-.576-1.12-1.056zM47.904 30.112c.608.544 1.92 1.248 3.712 1.248 3.84 0 6.048-2.752 6.048-7.584 0-4.96-2.272-7.68-6.016-7.68-1.696 0-3.072.608-3.968 1.44v-1.12h-4.32V37.92h4.544zm5.152-6.336c0 1.984-.672 3.424-2.784 3.424-1.088 0-1.856-.288-2.368-.576v-5.76c.512-.32 1.28-.608 2.368-.608 2.144 0 2.784 1.536 2.784 3.52zM72.448 31.008v-9.696c0-3.744-2.624-5.216-6.24-5.216-3.712 0-6.144 1.664-6.144 4.192 0 .256.032.672.064.96h3.904V20.8c0-.64.608-1.184 1.856-1.184 1.6 0 2.016.736 2.016 1.696v.672l-1.184.064c-4.448.256-7.264 1.696-7.264 4.992 0 2.656 1.76 4.32 4.256 4.32 2.112 0 3.552-.864 4.512-1.984v1.632zm-8.384-4.288c0-1.024.864-1.664 2.656-1.92l1.184-.16v2.368c-.64.576-1.536.96-2.368.96-.864 0-1.472-.384-1.472-1.248zm-1.152-15.488c0 1.504 1.12 3.264 3.52 3.264 2.528 0 3.68-1.76 3.68-3.264 0-1.664-1.152-3.328-3.68-3.328-2.4 0-3.52 1.664-3.52 3.328zm2.4 0c0-.512.352-1.12 1.12-1.12.864 0 1.216.608 1.216 1.12 0 .48-.352 1.056-1.216 1.056-.768 0-1.12-.576-1.12-1.056zM87.68 16.096c-4.896 0-7.104 3.168-7.104 7.68 0 4.32 2.336 7.584 6.944 7.584 4.864 0 7.136-3.2 7.136-7.68 0-4.416-2.336-7.584-6.976-7.584zm-.064 11.2c-1.6 0-2.432-1.056-2.432-3.616 0-2.432.8-3.52 2.368-3.52 1.664 0 2.496 1.088 2.496 3.616 0 2.368-.832 3.52-2.432 3.52zM101.632 30.112c.608.544 1.92 1.248 3.712 1.248 3.84 0 6.048-2.752 6.048-7.584 0-4.96-2.272-7.68-6.016-7.68-1.696 0-3.072.608-3.968 1.44v-1.12h-4.32V37.92h4.544zm5.152-6.336c0 1.984-.672 3.424-2.784 3.424-1.088 0-1.856-.288-2.368-.576v-5.76c.512-.32 1.28-.608 2.368-.608 2.144 0 2.784 1.536 2.784 3.52zM123.008 17.344c-.608-.544-1.888-1.248-3.648-1.248-3.808 0-5.984 2.752-5.984 7.584 0 4.96 2.24 7.68 5.952 7.68 1.664 0 3.008-.608 3.904-1.44v1.088h4.32V8.928h-4.544zm-5.024 6.336c0-1.984.672-3.424 2.72-3.424 1.056 0 1.792.288 2.304.576v5.76c-.512.32-1.248.608-2.304.608-2.08 0-2.72-1.536-2.72-3.52zM142.848 31.008v-9.696c0-3.744-2.624-5.216-6.24-5.216-3.712 0-6.144 1.664-6.144 4.192 0 .256.032.672.064.96h3.904V20.8c0-.64.608-1.184 1.856-1.184 1.6 0 2.016.736 2.016 1.696v.672l-1.184.064c-4.448.256-7.264 1.696-7.264 4.992 0 2.656 1.76 4.32 4.256 4.32 2.112 0 3.552-.864 4.512-1.984v1.632zm-8.384-4.288c0-1.024.864-1.664 2.656-1.92l1.184-.16v2.368c-.64.576-1.536.96-2.368.96-.864 0-1.472-.384-1.472-1.248zM155.104 16.416v1.056c-.736-.672-1.856-1.376-3.744-1.376-3.84 0-6.144 2.592-6.144 7.584 0 5.12 2.272 7.68 6.176 7.68 1.088 0 2.496-.512 3.424-1.408v2.144c0 1.344-.8 2.048-2.336 2.048-1.6 0-2.336-.768-2.336-1.504h-3.872c0 3.008 2.08 5.024 6.208 5.024 4.288 0 6.88-2.368 6.88-5.888v-15.36zm-5.312 7.264c0-1.984.608-3.424 2.72-3.424 1.12 0 1.92.288 2.304.512v5.824c-.512.352-1.472.608-2.304.608-2.144 0-2.72-1.536-2.72-3.52zM169.248 27.552c-1.76 0-2.784-.864-2.88-2.368h8.448c.16-.608.256-1.792.256-2.656 0-3.168-1.664-6.432-6.336-6.432-4.544 0-6.944 3.552-6.944 7.616 0 4.448 2.272 7.648 7.456 7.648a7.942 7.942 0 005.472-2.144l-2.08-2.912c-1.088.8-2.24 1.248-3.392 1.248zm-2.88-5.536c.096-1.28.832-2.336 2.368-2.336 1.024 0 2.176.48 2.176 1.952 0 .064 0 .192-.032.384zM177.376 8.928v17.76c0 2.464.928 4.512 4.096 4.512h2.24v-4.192h-.64c-.864 0-1.152-.256-1.152-1.056V8.928zM197.408 18.272c-.992-1.056-2.656-2.176-5.664-2.176-4.672 0-6.272 2.688-6.272 4.832 0 2.208 1.344 3.744 4 4.384l2.496.608c.832.192 1.12.64 1.12 1.088 0 .704-.736 1.056-1.76 1.056-1.6 0-2.976-.96-3.808-1.856l-2.528 2.688c.96 1.152 2.976 2.464 6.144 2.464 5.12 0 6.56-2.56 6.56-4.8 0-2.112-1.184-3.776-4.192-4.448l-2.432-.544c-.704-.16-1.088-.576-1.088-1.12 0-.576.544-1.024 1.568-1.024 1.312 0 2.528.608 3.424 1.504zM206.848 27.552c-1.76 0-2.784-.864-2.88-2.368h8.448c.16-.608.256-1.792.256-2.656 0-3.168-1.664-6.432-6.336-6.432-4.544 0-6.944 3.552-6.944 7.616 0 4.448 2.272 7.648 7.456 7.648a7.942 7.942 0 005.472-2.144l-2.08-2.912c-1.088.8-2.24 1.248-3.392 1.248zm-2.88-5.536c.096-1.28.832-2.336 2.368-2.336 1.024 0 2.176.48 2.176 1.952 0 .064 0 .192-.032.384z"/></g><g fill="#fff"><path d="M1.536 69.408H6.08V54.816H1.536zm2.208-16.96c1.312 0 2.592-.672 2.592-2.496 0-1.76-1.28-2.56-2.592-2.56-1.504 0-2.624.8-2.624 2.56 0 1.824 1.12 2.496 2.624 2.496zM14.848 47.328v17.76c0 2.464.928 4.512 4.096 4.512h2.24v-4.192h-.64c-.864 0-1.152-.256-1.152-1.056V47.328zM35.68 69.408v-9.696c0-3.744-2.624-5.216-6.24-5.216-3.712 0-6.144 1.664-6.144 4.192 0 .256.032.672.064.96h3.904V59.2c0-.64.608-1.184 1.856-1.184 1.6 0 2.016.736 2.016 1.696v.672l-1.184.064c-4.448.256-7.264 1.696-7.264 4.992 0 2.656 1.76 4.32 4.256 4.32 2.112 0 3.552-.864 4.512-1.984v1.632zm-8.384-4.288c0-1.024.864-1.664 2.656-1.92l1.184-.16v2.368c-.64.576-1.536.96-2.368.96-.864 0-1.472-.384-1.472-1.248zM47.68 55.744c-.608-.544-1.888-1.248-3.648-1.248-3.808 0-5.984 2.752-5.984 7.584 0 4.96 2.24 7.68 5.952 7.68 1.664 0 3.008-.608 3.904-1.44v1.088h4.32v-22.08H47.68zm-5.024 6.336c0-1.984.672-3.424 2.72-3.424 1.056 0 1.792.288 2.304.576v5.76c-.512.32-1.248.608-2.304.608-2.08 0-2.72-1.536-2.72-3.52zM62.112 65.952c-1.76 0-2.784-.864-2.88-2.368h8.448c.16-.608.256-1.792.256-2.656 0-3.168-1.664-6.432-6.336-6.432-4.544 0-6.944 3.552-6.944 7.616 0 4.448 2.272 7.648 7.456 7.648a7.942 7.942 0 005.472-2.144l-2.08-2.912c-1.088.8-2.24 1.248-3.392 1.248zm-2.88-5.536c.096-1.28.832-2.336 2.368-2.336 1.024 0 2.176.48 2.176 1.952 0 .064 0 .192-.032.384zM81.824 56.672c-.992-1.056-2.656-2.176-5.664-2.176-4.672 0-6.272 2.688-6.272 4.832 0 2.208 1.344 3.744 4 4.384l2.496.608c.832.192 1.12.64 1.12 1.088 0 .704-.736 1.056-1.76 1.056-1.6 0-2.976-.96-3.808-1.856l-2.528 2.688c.96 1.152 2.976 2.464 6.144 2.464 5.12 0 6.56-2.56 6.56-4.8 0-2.112-1.184-3.776-4.192-4.448l-2.432-.544c-.704-.16-1.088-.576-1.088-1.12 0-.576.544-1.024 1.568-1.024 1.312 0 2.528.608 3.424 1.504zM90.464 58.624h2.944v-3.808h-2.944v-4.16l-4.544.672v3.488l-2.592.32v3.488h2.592v6.368c0 2.688 1.184 4.768 4.384 4.768 1.024 0 2.4-.16 3.168-.384V65.44a9.648 9.648 0 01-1.568.16c-.864 0-1.44-.32-1.44-1.28zM108.128 69.408v-9.696c0-3.744-2.624-5.216-6.24-5.216-3.712 0-6.144 1.664-6.144 4.192 0 .256.032.672.064.96h3.904V59.2c0-.64.608-1.184 1.856-1.184 1.6 0 2.016.736 2.016 1.696v.672l-1.184.064c-4.448.256-7.264 1.696-7.264 4.992 0 2.656 1.76 4.32 4.256 4.32 2.112 0 3.552-.864 4.512-1.984v1.632zm-8.384-4.288c0-1.024.864-1.664 2.656-1.92l1.184-.16v2.368c-.64.576-1.536.96-2.368.96-.864 0-1.472-.384-1.472-1.248zM117.088 58.624h2.944v-3.808h-2.944v-4.16l-4.544.672v3.488l-2.592.32v3.488h2.592v6.368c0 2.688 1.184 4.768 4.384 4.768 1.024 0 2.4-.16 3.168-.384V65.44a9.648 9.648 0 01-1.568.16c-.864 0-1.44-.32-1.44-1.28zM122.496 69.408h4.544V54.816h-4.544zm2.208-16.96c1.312 0 2.592-.672 2.592-2.496 0-1.76-1.28-2.56-2.592-2.56-1.504 0-2.624.8-2.624 2.56 0 1.824 1.12 2.496 2.624 2.496zM136.608 54.496c-4.896 0-7.104 3.168-7.104 7.68 0 4.32 2.336 7.584 6.944 7.584 4.864 0 7.136-3.2 7.136-7.68 0-4.416-2.336-7.584-6.976-7.584zm-.064 11.2c-1.6 0-2.432-1.056-2.432-3.616 0-2.432.8-3.52 2.368-3.52 1.664 0 2.496 1.088 2.496 3.616 0 2.368-.832 3.52-2.432 3.52zM146.016 69.408h4.544v-9.984c.448-.32 1.472-.768 2.272-.768 1.664 0 2.304.768 2.304 2.272v8.48h4.544v-9.024c0-3.84-1.792-5.888-4.928-5.888-2.4 0-3.648.896-4.352 1.952v-1.632h-4.384zM169.44 65.952c-1.76 0-2.784-.864-2.88-2.368h8.448c.16-.608.256-1.792.256-2.656 0-3.168-1.664-6.432-6.336-6.432-4.544 0-6.944 3.552-6.944 7.616 0 4.448 2.272 7.648 7.456 7.648a7.942 7.942 0 005.472-2.144l-2.08-2.912c-1.088.8-2.24 1.248-3.392 1.248zm-2.88-5.536c.096-1.28.832-2.336 2.368-2.336 1.024 0 2.176.48 2.176 1.952 0 .064 0 .192-.032.384zM177.664 69.408h4.544v-9.984c.448-.32 1.472-.768 2.272-.768 1.664 0 2.304.768 2.304 2.272v8.48h4.544v-9.024c0-3.84-1.792-5.888-4.928-5.888-2.4 0-3.648.896-4.352 1.952v-1.632h-4.384z"/></g></svg>