<svg width="322" height="77" viewBox="0 0 322 77" xmlns="http://www.w3.org/2000/svg"><g fill="#fff"><path d="M6.208 20.224c0-4.16.96-7.008 4.352-7.008 3.36 0 4.288 2.848 4.288 7.008 0 4.096-.896 6.944-4.352 6.944-3.552 0-4.288-2.848-4.288-6.944zm13.728 0c0-6.304-2.432-11.168-9.376-11.168-7.04 0-9.472 4.864-9.472 11.168 0 6.272 2.496 11.104 9.408 11.104 6.848 0 9.44-4.832 9.44-11.104zM22.528 31.008h4.544v-9.984c.672-.416 1.408-.768 2.432-.768 1.184 0 1.92.544 2.304 1.152v9.6h4.544v-9.984c.512-.384 1.44-.768 2.528-.768 1.536 0 2.08.672 2.08 1.728v9.024h4.576v-9.44c0-3.552-1.536-5.472-5.216-5.472-2.752 0-4.384 1.184-5.088 2.112-.864-1.184-2.016-2.112-4.352-2.112-2.112 0-3.264 1.056-3.968 1.952v-1.632h-4.384zM54.496 20.224h2.944v-3.808h-2.944v-4.16l-4.544.672v3.488l-2.592.32v3.488h2.592v6.368c0 2.688 1.184 4.768 4.384 4.768 1.024 0 2.4-.16 3.168-.384V27.04a9.648 9.648 0 01-1.568.16c-.864 0-1.44-.32-1.44-1.28zM72.16 31.008v-9.696c0-3.744-2.624-5.216-6.24-5.216-3.712 0-6.144 1.664-6.144 4.192 0 .256.032.672.064.96h3.904V20.8c0-.64.608-1.184 1.856-1.184 1.6 0 2.016.736 2.016 1.696v.672l-1.184.064c-4.448.256-7.264 1.696-7.264 4.992 0 2.656 1.76 4.32 4.256 4.32 2.112 0 3.552-.864 4.512-1.984v1.632zm-8.384-4.288c0-1.024.864-1.664 2.656-1.92l1.184-.16v2.368c-.64.576-1.536.96-2.368.96-.864 0-1.472-.384-1.472-1.248zM75.04 31.008h4.544v-9.984c.448-.32 1.472-.768 2.272-.768 1.664 0 2.304.768 2.304 2.272v8.48h4.544v-9.024c0-3.84-1.792-5.888-4.928-5.888-2.4 0-3.648.896-4.352 1.952v-1.632H75.04zM106.112 31.008l-5.216-9.248 5.44-5.344h-5.472l-4.736 4.896V8.928h-4.544v22.08h4.544V26.56l1.664-1.632 3.328 6.08zM113.92 27.552c-1.76 0-2.784-.864-2.88-2.368h8.448c.16-.608.256-1.792.256-2.656 0-3.168-1.664-6.432-6.336-6.432-4.544 0-6.944 3.552-6.944 7.616 0 4.448 2.272 7.648 7.456 7.648a7.942 7.942 0 005.472-2.144l-2.08-2.912c-1.088.8-2.24 1.248-3.392 1.248zm-2.88-5.536c.096-1.28.832-2.336 2.368-2.336 1.024 0 2.176.48 2.176 1.952 0 .064 0 .192-.032.384zM136.768 8.928h-2.24c-3.68 0-5.632 1.76-5.632 5.408v2.08l-2.208.32v3.52h2.208v10.752h4.544V20.256h3.52v-3.84h-3.52v-2.048c0-1.024.32-1.6 1.376-1.6h1.952zM145.248 16.096c-4.896 0-7.104 3.168-7.104 7.68 0 4.32 2.336 7.584 6.944 7.584 4.864 0 7.136-3.2 7.136-7.68 0-4.416-2.336-7.584-6.976-7.584zm-.064 11.2c-1.6 0-2.432-1.056-2.432-3.616 0-2.432.8-3.52 2.368-3.52 1.664 0 2.496 1.088 2.496 3.616 0 2.368-.832 3.52-2.432 3.52zM159.008 18.688v-2.272h-4.352v14.592h4.544v-8.992c.448-.768 1.408-1.248 2.432-1.248.768 0 1.824.128 2.528.32l.288-4.8a6.266 6.266 0 00-1.6-.192c-2.016 0-3.104 1.312-3.808 2.592z"/></g><g fill="#fff"><path d="M1.504 69.408h4.544v-9.984c.448-.32 1.472-.768 2.272-.768 1.664 0 2.304.768 2.304 2.272v8.48h4.544v-9.024c0-3.84-1.792-5.888-4.928-5.888-2.4 0-3.648.896-4.352 1.952v-1.632H1.504zM30.336 69.408v-9.696c0-3.744-2.624-5.216-6.24-5.216-3.712 0-6.144 1.664-6.144 4.192 0 .256.032.672.064.96h3.904V59.2c0-.64.608-1.184 1.856-1.184 1.6 0 2.016.736 2.016 1.696v.672l-1.184.064c-4.448.256-7.264 1.696-7.264 4.992 0 2.656 1.76 4.32 4.256 4.32 2.112 0 3.552-.864 4.512-1.984v1.632zm-8.384-4.288c0-1.024.864-1.664 2.656-1.92l1.184-.16v2.368c-.64.576-1.536.96-2.368.96-.864 0-1.472-.384-1.472-1.248zM39.296 58.624h2.944v-3.808h-2.944v-4.16l-4.544.672v3.488l-2.592.32v3.488h2.592v6.368c0 2.688 1.184 4.768 4.384 4.768 1.024 0 2.4-.16 3.168-.384V65.44a9.648 9.648 0 01-1.568.16c-.864 0-1.44-.32-1.44-1.28zM58.208 54.816h-4.544V64.8c-.448.32-1.472.768-2.272.768-1.664 0-2.304-.768-2.304-2.272v-8.48h-4.544v9.024c0 3.84 1.792 5.888 4.928 5.888 2.4 0 3.648-.896 4.352-1.952v1.632h4.384zM65.568 57.088v-2.272h-4.352v14.592h4.544v-8.992c.448-.768 1.408-1.248 2.432-1.248.768 0 1.824.128 2.528.32l.288-4.8a6.266 6.266 0 00-1.6-.192c-2.016 0-3.104 1.312-3.808 2.592zM79.648 65.952c-1.76 0-2.784-.864-2.88-2.368h8.448c.16-.608.256-1.792.256-2.656 0-3.168-1.664-6.432-6.336-6.432-4.544 0-6.944 3.552-6.944 7.616 0 4.448 2.272 7.648 7.456 7.648a7.942 7.942 0 005.472-2.144l-2.08-2.912c-1.088.8-2.24 1.248-3.392 1.248zm-2.88-5.536c.096-1.28.832-2.336 2.368-2.336 1.024 0 2.176.48 2.176 1.952 0 .064 0 .192-.032.384zM87.872 69.408h4.544v-9.984c.448-.32 1.472-.768 2.272-.768 1.664 0 2.304.768 2.304 2.272v8.48h4.544v-9.024c0-3.84-1.792-5.888-4.928-5.888-2.4 0-3.648.896-4.352 1.952v-1.632h-4.384z"/></g></svg>