<svg width="186.418" height="67.076" viewBox="0 0 186.418 67.076" xmlns="http://www.w3.org/2000/svg"><g fill="#fff"><path d="M12.488 8.168l-3.986 14.44L4.46 8.167H0L5.714 27.01h5.52l5.77-18.843zM22.663 24c-1.533 0-2.425-.752-2.509-2.062h7.36c.139-.53.222-1.56.222-2.314 0-2.76-1.45-5.603-5.52-5.603-3.957 0-6.048 3.095-6.048 6.635 0 3.875 1.979 6.662 6.495 6.662a6.919 6.919 0 004.767-1.868l-1.812-2.536C24.67 23.61 23.666 24 22.663 24zm-2.509-4.822c.084-1.115.725-2.035 2.063-2.035.892 0 1.895.419 1.895 1.7 0 .057 0 .168-.027.335zM33.618 16.28V14.3h-3.791v12.711h3.958v-7.833c.39-.669 1.227-1.087 2.119-1.087.669 0 1.589.112 2.202.279l.25-4.181a5.459 5.459 0 00-1.393-.168c-1.756 0-2.704 1.143-3.317 2.258zM47.946 15.109c-.53-.474-1.645-1.088-3.178-1.088-3.317 0-5.213 2.398-5.213 6.607 0 4.32 1.952 6.69 5.185 6.69 1.45 0 2.62-.53 3.401-1.254v.947h3.763V7.777h-3.958zm-4.376 5.519c0-1.728.585-2.983 2.369-2.983.92 0 1.561.251 2.007.502v5.018c-.446.278-1.087.53-2.007.53-1.812 0-2.37-1.339-2.37-3.067zM60.518 24c-1.533 0-2.425-.752-2.509-2.062h7.36c.139-.53.222-1.56.222-2.314 0-2.76-1.45-5.603-5.52-5.603-3.957 0-6.048 3.095-6.048 6.635 0 3.875 1.98 6.662 6.495 6.662a6.919 6.919 0 004.767-1.868l-1.812-2.536C62.525 23.61 61.52 24 60.518 24zm-2.509-4.822c.084-1.115.725-2.035 2.063-2.035.892 0 1.895.419 1.895 1.7 0 .057 0 .168-.027.335zM67.682 27.011h3.958v-8.697c.39-.278 1.283-.669 1.98-.669 1.449 0 2.007.67 2.007 1.98v7.386h3.958v-7.86c0-3.346-1.561-5.13-4.293-5.13-2.09 0-3.178.78-3.791 1.7v-1.42h-3.819zM92.101 15.917c-.864-.92-2.314-1.896-4.934-1.896-4.07 0-5.464 2.342-5.464 4.21 0 1.923 1.171 3.261 3.485 3.819l2.174.53c.725.166.976.557.976.947 0 .613-.641.92-1.533.92-1.394 0-2.593-.836-3.318-1.617l-2.202 2.342c.837 1.003 2.593 2.146 5.352 2.146 4.46 0 5.715-2.23 5.715-4.181 0-1.84-1.032-3.29-3.652-3.875l-2.118-.474c-.614-.14-.948-.502-.948-.975 0-.502.474-.893 1.366-.893 1.143 0 2.202.53 2.982 1.31zM107.07 7.777h-1.951c-3.206 0-4.906 1.533-4.906 4.711V14.3l-1.924.279v3.066h1.924v9.366h3.958v-9.366h3.066V14.3h-3.066v-1.784c0-.892.279-1.394 1.199-1.394h1.7zM114.457 14.021c-4.265 0-6.188 2.76-6.188 6.69 0 1.757.418 3.29 1.282 4.46l-1.422 1.84h2.844l.306-.39c.837.446 1.84.697 3.039.697 4.237 0 6.216-2.787 6.216-6.69 0-1.7-.418-3.206-1.226-4.32l1.56-2.008h-2.926l-.363.446c-.864-.446-1.895-.725-3.122-.725zm-2.174 6.607c0-2.119.697-3.066 2.063-3.066.362 0 .669.055.92.195l-2.955 3.819c-.028-.279-.028-.586-.028-.948zm2.118 3.15c-.306 0-.585-.028-.808-.112l2.9-3.735c.027.25.027.502.027.78 0 2.063-.725 3.067-2.119 3.067zM126.444 16.28V14.3h-3.791v12.711h3.958v-7.833c.39-.669 1.227-1.087 2.119-1.087.669 0 1.588.112 2.202.279l.25-4.181a5.459 5.459 0 00-1.393-.168c-1.756 0-2.704 1.143-3.317 2.258zM142.835 15.917c-.865-.92-2.314-1.896-4.934-1.896-4.07 0-5.464 2.342-5.464 4.21 0 1.923 1.17 3.261 3.484 3.819l2.175.53c.724.166.975.557.975.947 0 .613-.64.92-1.533.92-1.394 0-2.592-.836-3.317-1.617l-2.202 2.342c.836 1.003 2.592 2.146 5.352 2.146 4.46 0 5.714-2.23 5.714-4.181 0-1.84-1.03-3.29-3.651-3.875l-2.119-.474c-.613-.14-.948-.502-.948-.975 0-.502.474-.893 1.366-.893 1.143 0 2.203.53 2.983 1.31zM150.361 17.617h2.565V14.3h-2.565v-3.624l-3.958.586V14.3l-2.258.279v3.038h2.258v5.548c0 2.341 1.031 4.153 3.819 4.153.892 0 2.09-.14 2.76-.334v-3.43a8.404 8.404 0 01-1.367.14c-.752 0-1.254-.278-1.254-1.115zM161.037 24c-1.533 0-2.425-.752-2.508-2.062h7.359c.14-.53.223-1.56.223-2.314 0-2.76-1.45-5.603-5.52-5.603-3.958 0-6.049 3.095-6.049 6.635 0 3.875 1.98 6.662 6.495 6.662a6.919 6.919 0 004.767-1.868l-1.812-2.536c-.948.697-1.951 1.087-2.955 1.087zm-2.508-4.822c.083-1.115.724-2.035 2.062-2.035.892 0 1.896.419 1.896 1.7 0 .057 0 .168-.028.335z"/></g><g fill="#fff"><path d="M5.408 51.068c0-3.624.836-6.105 3.79-6.105 2.928 0 3.736 2.481 3.736 6.105 0 3.568-.78 6.05-3.79 6.05-3.095 0-3.736-2.482-3.736-6.05zm11.958 0c0-5.491-2.118-9.728-8.167-9.728-6.133 0-8.251 4.237-8.251 9.728 0 5.464 2.174 9.673 8.195 9.673 5.966 0 8.223-4.21 8.223-9.673zM19.624 60.462h3.959v-8.697c.585-.362 1.226-.669 2.118-.669 1.032 0 1.673.474 2.007 1.003v8.363h3.959v-8.697c.446-.335 1.254-.669 2.202-.669 1.338 0 1.812.585 1.812 1.505v7.861h3.986V52.24c0-3.094-1.338-4.767-4.544-4.767-2.397 0-3.819 1.032-4.432 1.84-.753-1.031-1.756-1.84-3.791-1.84-1.84 0-2.843.92-3.457 1.7v-1.421h-3.819zM47.472 51.068h2.565v-3.317h-2.565v-3.624l-3.958.585v3.039l-2.258.279v3.038h2.258v5.547c0 2.342 1.031 4.154 3.819 4.154.892 0 2.09-.14 2.76-.335v-3.428a8.404 8.404 0 01-1.366.139c-.753 0-1.255-.279-1.255-1.115zM62.86 60.462v-8.446c0-3.262-2.286-4.544-5.436-4.544-3.234 0-5.352 1.45-5.352 3.652 0 .223.027.585.055.836h3.401v-.39c0-.558.53-1.032 1.617-1.032 1.394 0 1.756.642 1.756 1.478v.585l-1.031.056c-3.875.223-6.328 1.477-6.328 4.349 0 2.313 1.533 3.763 3.707 3.763 1.84 0 3.095-.753 3.93-1.728v1.421zm-7.304-3.735c0-.892.753-1.45 2.314-1.673l1.031-.14v2.064c-.557.501-1.338.836-2.063.836-.752 0-1.282-.335-1.282-1.087zM65.368 60.462h3.959v-8.697c.39-.279 1.282-.669 1.979-.669 1.45 0 2.007.669 2.007 1.98v7.386h3.958v-7.86c0-3.346-1.56-5.13-4.293-5.13-2.09 0-3.177.78-3.79 1.7v-1.421h-3.82zM92.435 60.462l-4.543-8.056 4.739-4.655h-4.767l-4.126 4.265V41.228H79.78v19.234h3.958v-3.875l1.45-1.421 2.899 5.296zM99.237 57.452c-1.533 0-2.425-.753-2.509-2.063h7.36c.139-.53.222-1.561.222-2.314 0-2.76-1.449-5.603-5.519-5.603-3.958 0-6.049 3.094-6.049 6.635 0 3.874 1.98 6.662 6.495 6.662a6.919 6.919 0 004.767-1.868l-1.812-2.537c-.948.697-1.951 1.088-2.955 1.088zm-2.509-4.823c.084-1.115.725-2.035 2.063-2.035.892 0 1.896.418 1.896 1.7 0 .056 0 .168-.028.335zM116.409 49.368c-.865-.92-2.314-1.896-4.934-1.896-4.07 0-5.464 2.342-5.464 4.21 0 1.923 1.17 3.26 3.484 3.818l2.175.53c.724.167.975.557.975.948 0 .613-.64.92-1.533.92-1.394 0-2.592-.837-3.317-1.617l-2.202 2.341c.836 1.004 2.592 2.147 5.352 2.147 4.46 0 5.714-2.23 5.714-4.182 0-1.84-1.031-3.289-3.651-3.874l-2.119-.474c-.613-.14-.948-.502-.948-.976 0-.502.474-.892 1.366-.892 1.143 0 2.202.53 2.983 1.31zM123.935 51.068h2.564v-3.317h-2.564v-3.624l-3.958.585v3.039l-2.258.279v3.038h2.258v5.547c0 2.342 1.031 4.154 3.819 4.154.892 0 2.09-.14 2.76-.335v-3.428a8.404 8.404 0 01-1.367.139c-.752 0-1.254-.279-1.254-1.115zM139.322 60.462v-8.446c0-3.262-2.286-4.544-5.435-4.544-3.234 0-5.353 1.45-5.353 3.652 0 .223.028.585.056.836h3.401v-.39c0-.558.53-1.032 1.617-1.032 1.394 0 1.756.642 1.756 1.478v.585l-1.031.056c-3.875.223-6.328 1.477-6.328 4.349 0 2.313 1.533 3.763 3.707 3.763 1.84 0 3.094-.753 3.93-1.728v1.421zm-7.303-3.735c0-.892.752-1.45 2.314-1.673l1.03-.14v2.064c-.557.501-1.337.836-2.062.836-.753 0-1.282-.335-1.282-1.087zM147.127 51.068h2.565v-3.317h-2.565v-3.624l-3.958.585v3.039l-2.258.279v3.038h2.258v5.547c0 2.342 1.031 4.154 3.819 4.154.892 0 2.09-.14 2.76-.335v-3.428a8.404 8.404 0 01-1.366.139c-.753 0-1.255-.279-1.255-1.115zM151.838 60.462h3.959V47.751h-3.959zm1.924-14.774c1.143 0 2.258-.585 2.258-2.174 0-1.533-1.115-2.23-2.258-2.23-1.31 0-2.286.697-2.286 2.23 0 1.589.976 2.174 2.286 2.174zM164.132 47.472c-4.265 0-6.189 2.76-6.189 6.69 0 3.763 2.035 6.607 6.05 6.607 4.236 0 6.215-2.788 6.215-6.69 0-3.847-2.035-6.607-6.076-6.607zm-.056 9.757c-1.394 0-2.119-.92-2.119-3.15 0-2.119.697-3.067 2.063-3.067 1.45 0 2.174.948 2.174 3.15 0 2.063-.724 3.067-2.118 3.067zM172.327 60.462h3.958v-8.697c.39-.279 1.283-.669 1.98-.669 1.449 0 2.007.669 2.007 1.98v7.386h3.958v-7.86c0-3.346-1.561-5.13-4.293-5.13-2.09 0-3.178.78-3.791 1.7v-1.421h-3.819z"/></g></svg>