<svg width="218.047" height="35.869" viewBox="0 0 218.047 35.869" xmlns="http://www.w3.org/2000/svg"><g fill="#fff"><path d="M5.86 19.09c0-3.927.906-6.615 4.108-6.615 3.171 0 4.047 2.688 4.047 6.615 0 3.866-.845 6.555-4.108 6.555-3.352 0-4.047-2.689-4.047-6.555zm12.958 0c0-5.95-2.296-10.542-8.85-10.542-6.645 0-8.941 4.591-8.941 10.542 0 5.92 2.356 10.481 8.88 10.481 6.464 0 8.911-4.56 8.911-10.481zM21.265 29.27h4.289v-9.425c.634-.393 1.329-.725 2.296-.725 1.117 0 1.812.514 2.174 1.088v9.061h4.29v-9.424c.483-.362 1.359-.725 2.386-.725 1.45 0 1.963.634 1.963 1.631v8.518h4.32v-8.91c0-3.353-1.45-5.166-4.924-5.166-2.598 0-4.138 1.118-4.803 1.994-.815-1.118-1.903-1.994-4.108-1.994-1.993 0-3.08.997-3.745 1.843v-1.54h-4.138zM51.44 19.09h2.78v-3.595h-2.78V11.57l-4.29.634v3.292l-2.446.303v3.292h2.447v6.01c0 2.538 1.118 4.501 4.138 4.501.967 0 2.266-.15 2.99-.362v-3.715a9.107 9.107 0 01-1.48.15c-.815 0-1.359-.301-1.359-1.207zM68.114 29.27v-9.153c0-3.534-2.477-4.924-5.89-4.924-3.504 0-5.8 1.571-5.8 3.957 0 .242.03.635.06.907h3.686v-.423c0-.604.573-1.118 1.751-1.118 1.51 0 1.903.695 1.903 1.6v.635l-1.117.06c-4.199.242-6.857 1.602-6.857 4.713 0 2.507 1.661 4.077 4.017 4.077 1.994 0 3.353-.815 4.26-1.872v1.54zM60.2 25.221c0-.967.815-1.571 2.507-1.813l1.117-.15v2.235c-.604.543-1.45.906-2.235.906-.815 0-1.39-.363-1.39-1.178zM70.832 29.27h4.29v-9.425c.422-.302 1.389-.725 2.144-.725 1.57 0 2.175.725 2.175 2.145v8.004h4.289v-8.518c0-3.624-1.692-5.558-4.652-5.558-2.265 0-3.443.846-4.108 1.843v-1.54h-4.138zM100.162 29.27l-4.924-8.73 5.135-5.045h-5.165l-4.47 4.622V8.427h-4.29V29.27h4.29v-4.198l1.57-1.54 3.142 5.738zM107.532 26.007c-1.661 0-2.628-.816-2.719-2.235h7.975c.15-.574.241-1.692.241-2.507 0-2.99-1.57-6.072-5.98-6.072-4.29 0-6.555 3.353-6.555 7.19 0 4.198 2.145 7.218 7.038 7.218a7.497 7.497 0 005.165-2.023l-1.963-2.749c-1.027.755-2.115 1.178-3.202 1.178zm-2.719-5.226c.091-1.208.786-2.205 2.236-2.205.966 0 2.054.454 2.054 1.843 0 .06 0 .181-.03.362zM129.099 8.427h-2.115c-3.473 0-5.316 1.662-5.316 5.105v1.963l-2.084.303v3.322h2.084v10.15h4.29V19.12h3.322v-3.625h-3.323v-1.933c0-.966.302-1.51 1.3-1.51h1.842zM137.103 15.193c-4.621 0-6.705 2.99-6.705 7.25 0 4.078 2.205 7.158 6.554 7.158 4.591 0 6.736-3.02 6.736-7.249 0-4.168-2.205-7.159-6.585-7.159zm-.06 10.572c-1.51 0-2.296-.996-2.296-3.413 0-2.295.755-3.322 2.235-3.322 1.571 0 2.356 1.027 2.356 3.413 0 2.235-.785 3.322-2.295 3.322zM150.092 17.64v-2.145h-4.108V29.27h4.289v-8.488c.423-.724 1.329-1.178 2.295-1.178.725 0 1.722.121 2.387.302l.272-4.53a5.915 5.915 0 00-1.51-.182c-1.904 0-2.93 1.239-3.595 2.447zM170.662 16.371c-.574-.513-1.782-1.178-3.444-1.178-3.594 0-5.648 2.598-5.648 7.16 0 4.681 2.114 7.248 5.618 7.248 1.57 0 2.84-.573 3.685-1.359v1.027h4.078V8.427h-4.29zm-4.743 5.981c0-1.873.635-3.232 2.568-3.232.997 0 1.691.272 2.175.544V25.1c-.484.302-1.178.574-2.175.574-1.964 0-2.568-1.45-2.568-3.323zM177.82 29.27h4.29V15.494h-4.29zm2.085-16.01c1.238 0 2.446-.634 2.446-2.356 0-1.661-1.208-2.416-2.446-2.416-1.42 0-2.477.755-2.477 2.416 0 1.722 1.057 2.356 2.477 2.356zM193.83 15.495v.997c-.695-.634-1.753-1.299-3.535-1.299-3.624 0-5.8 2.447-5.8 7.16 0 4.832 2.145 7.248 5.83 7.248 1.027 0 2.357-.483 3.232-1.329v2.024c0 1.269-.755 1.933-2.205 1.933-1.51 0-2.205-.725-2.205-1.42h-3.654c0 2.84 1.963 4.743 5.86 4.743 4.047 0 6.494-2.235 6.494-5.558V15.495zm-5.015 6.857c0-1.873.574-3.232 2.568-3.232 1.057 0 1.812.272 2.174.483v5.498c-.483.332-1.389.574-2.174.574-2.024 0-2.568-1.45-2.568-3.323z"/></g></svg>