<svg width="100%" height="100%" xmlns="http://www.w3.org/2000/svg" xmlns:xlink="http://www.w3.org/1999/xlink" xml:space="preserve" overflow="hidden" viewBox="0 0 44 43" preserveAspectRatio="none"><g transform="translate(-408 -329)"><g><g><g><g><path d="M21.0005 11.6047C21.6676 10.9378 22.749 10.9378 23.4161 11.6047L31.1036 19.2922C31.7706 19.9593 31.7706 21.0407 31.1036 21.7078L23.4161 29.3953C22.7374 30.0508 21.656 30.032 21.0005 29.3533 20.3611 28.6913 20.3611 27.6417 21.0005 26.9797L25.7719 22.2083 11.1042 22.2083C10.1607 22.2083 9.39583 21.4435 9.39583 20.5 9.39583 19.5565 10.1607 18.7917 11.1042 18.7917L25.7719 18.7917 21.0005 14.0203C20.3336 13.3532 20.3336 12.2718 21.0005 11.6047Z" fill="#FFFFFF" fill-rule="nonzero" fill-opacity="1" transform="matrix(1.02439 0 0 1 409 330)" data-color-group="0"/></g></g></g></g></g></svg>