<svg width="87.5" height="20" viewBox="0 0 87.5 20" xmlns="http://www.w3.org/2000/svg"><g fill="#fff"><path d="M3.261 14.773V4.33H1.32v12.047h6.914v-1.604zM18.016 15.022c-1.39 0-2.031-.837-2.067-2.138h5.096c.072-.339.107-.927.107-1.337 0-1.746-.944-3.475-3.332-3.475-1.123 0-1.942.41-2.495 1.087-.48-.73-1.354-1.087-2.602-1.087-2.031 0-3.19.891-3.19 2.157 0 .178.019.374.054.552h1.568v-.392c0-.517.481-.873 1.462-.873 1.158 0 1.496.463 1.496 1.283v.641l-1.14.125c-2.334.178-3.831.945-3.831 2.673 0 1.444.944 2.335 2.655 2.335 1.461 0 2.512-.588 3.19-1.355.606.856 1.568 1.355 3.029 1.355 1.265 0 2.388-.553 2.958-1.177l-.855-1.176c-.606.553-1.426.802-2.103.802zm-7.057-.89c0-.82.73-1.213 2.05-1.39l1.104-.161v1.746c-.445.464-1.158.838-1.942.838s-1.212-.357-1.212-1.034zm4.99-2.567c.089-1.14.606-2.031 1.871-2.031.98 0 1.657.641 1.657 1.728 0 .072 0 .196-.018.303zM28.78 9.249c-.517-.57-1.426-1.177-2.977-1.177-2.334 0-3.19 1.373-3.19 2.549 0 1.122.696 1.942 2.068 2.28l1.407.357c.66.16 1.034.446 1.034.927 0 .677-.624 1.015-1.515 1.015-1.14 0-1.764-.57-2.21-1.087l-1.05 1.087c.498.624 1.478 1.373 3.207 1.373 2.441 0 3.386-1.212 3.386-2.53 0-1.177-.73-1.979-2.281-2.335l-1.372-.321c-.642-.143-.874-.481-.874-.927 0-.552.392-1.015 1.337-1.015.873 0 1.55.374 1.996.873zM34.268 16.377h1.782v-5.881c.445-.41 1.033-.766 1.835-.766.838 0 1.372.338 1.675.89v5.757h1.8v-5.881c.392-.428 1.034-.766 1.853-.766 1.159 0 1.569.516 1.569 1.514v5.133h1.8v-5.275c0-1.96-.856-3.03-2.887-3.03-1.355 0-2.3.589-2.834 1.23-.517-.748-1.212-1.23-2.53-1.23-1.105 0-1.853.553-2.335 1.123v-.944h-1.728zM52.16 15.022c-1.373 0-2.015-.837-2.05-2.138h5.079c.089-.339.124-.927.124-1.337 0-1.746-.944-3.475-3.332-3.475-2.477 0-3.689 1.907-3.689 4.242 0 2.477 1.14 4.259 3.867 4.259 1.283 0 2.406-.553 2.976-1.177l-.855-1.176a3.258 3.258 0 01-2.12.802zm-2.05-3.457c.071-1.14.588-2.031 1.87-2.031.981 0 1.658.641 1.658 1.728 0 .072 0 .196-.018.303zM58.788 9.57V8.25h-1.71v8.127h1.781v-5.204c.339-.73.927-1.247 1.765-1.247.374 0 .855.053 1.211.16l.16-1.907a4.08 4.08 0 00-.962-.107c-1.176 0-1.8.713-2.227 1.497zM66.593 15.022c-1.372 0-2.013-.837-2.049-2.138h5.079c.089-.339.124-.927.124-1.337 0-1.746-.944-3.475-3.332-3.475-2.477 0-3.689 1.907-3.689 4.242 0 2.477 1.14 4.259 3.867 4.259 1.283 0 2.406-.553 2.976-1.177l-.855-1.176a3.258 3.258 0 01-2.12.802zm-2.049-3.457c.071-1.14.588-2.031 1.871-2.031.98 0 1.657.641 1.657 1.728 0 .072 0 .196-.017.303z"/></g></svg>